<?xml version="1.0" standalone="no"?><!DOCTYPE svg PUBLIC "-//W3C//DTD SVG 1.1//EN" "http://www.w3.org/Graphics/SVG/1.1/DTD/svg11.dtd"><svg t="1669012094434" class="icon" viewBox="0 0 1118 1024" version="1.1" xmlns="http://www.w3.org/2000/svg" p-id="5226" xmlns:xlink="http://www.w3.org/1999/xlink" width="218.359375" height="200"><path d="M774.092048 556.517638a51.635227 51.635227 0 0 1 0-76.361955L1091.903232 193.471086a80.434593 80.434593 0 0 0 5.818054-113.74295l-47.998943-53.235192a80.725495 80.725495 0 0 0-113.742951-5.818054L593.005126 330.195348a51.198873 51.198873 0 0 1-68.943937 0L182.686887 20.965793a80.725495 80.725495 0 0 0-113.74295 5.672602L20.799542 79.728136a80.725495 80.725495 0 0 0 5.672602 113.74295L342.683364 480.010232a50.326165 50.326165 0 0 1 16.872356 38.108251 50.762519 50.762519 0 0 1-16.872356 38.108252L40.435473 829.093455a80.580044 80.580044 0 0 0-5.818053 113.74295l47.998943 53.235192a80.725495 80.725495 0 0 0 113.74295 5.818053L523.624835 706.18707a51.344324 51.344324 0 0 1 68.943937 0L920.56155 1003.635067A80.289141 80.289141 0 0 0 974.523998 1023.998255h4.072638a79.998239 79.998239 0 0 0 55.707864-26.326694l48.144395-53.235191A80.289141 80.289141 0 0 0 1076.339939 830.547968z m286.830048 368.282801l-48.144394 53.08974a51.344324 51.344324 0 0 1-72.725672 3.636283L612.204703 684.660271a80.14369 80.14369 0 0 0-107.924897 0l-327.410973 295.266227a51.489775 51.489775 0 0 1-72.725671-3.636284l-47.998944-53.235191a51.635227 51.635227 0 0 1 3.781735-72.725672L362.173844 577.753534a80.725495 80.725495 0 0 0 0-119.561004L45.962624 171.944287a51.344324 51.344324 0 0 1-3.636283-72.725672l48.144394-53.08974a51.489775 51.489775 0 0 1 72.725672-3.636283l341.374302 309.229555a80.289141 80.289141 0 0 0 107.924897 0L955.469872 42.34714a51.489775 51.489775 0 0 1 72.725672 3.636284L1076.339939 99.218615a51.635227 51.635227 0 0 1-3.781735 72.725672L754.601568 458.628884a80.580044 80.580044 0 0 0 0 119.415553l302.684245 274.175781a51.344324 51.344324 0 0 1 3.636283 72.580221z" p-id="5227"></path><path d="M638.240493 521.609316l387.336927-344.283329a54.544254 54.544254 0 0 0 5.090797-76.943761 54.398802 54.398802 0 0 0-76.943761-3.927186l-99.779621 88.725319-138.324227 122.906385-158.10561 140.360546-392.718626-355.919436a54.1079 54.1079 0 1 0-72.725672 80.14369L476.207697 520.736608 118.542845 838.838695a54.1079 54.1079 0 1 0 71.852963 80.725495l366.537385-325.665557 128.724438 116.361075 137.596971 124.651801 99.343267 89.743478a54.1079 54.1079 0 1 0 72.725671-80.14369z" fill="#C1272D" p-id="5228"></path></svg>